<?xml version="1.0" standalone="no"?>
<!DOCTYPE svg PUBLIC "-//W3C//DTD SVG 20010904//EN"
 "http://www.w3.org/TR/2001/REC-SVG-20010904/DTD/svg10.dtd">
<svg version="1.0" xmlns="http://www.w3.org/2000/svg"
 width="1280.000000pt" height="496.000000pt" viewBox="0 0 1280.000000 496.000000"
 preserveAspectRatio="none">

<g transform="translate(0.000000,496.000000) scale(0.100000,-0.100000)"
fill="#000000" stroke="none">
<path d="M552 4921 c-17 -21 -41 -60 -54 -85 -12 -25 -26 -46 -32 -46 -5 0
-18 -7 -28 -16 -17 -16 -21 -14 -68 30 -74 70 -204 128 -297 134 l-73 5 0
-170 0 -169 67 -51 c74 -55 147 -95 206 -111 47 -13 98 0 139 37 l30 27 29
-27 c16 -15 29 -32 29 -37 0 -6 8 -17 18 -24 9 -7 26 -29 36 -48 11 -19 25
-39 33 -43 7 -4 13 -15 13 -23 0 -8 14 -20 30 -25 18 -7 30 -18 30 -29 0 -10
14 -24 32 -33 32 -15 32 -16 33 -91 0 -42 -3 -76 -6 -76 -11 0 -79 -74 -79
-86 0 -6 -18 -29 -40 -50 -22 -22 -40 -44 -40 -50 0 -7 -7 -14 -15 -18 -8 -3
-27 -30 -42 -60 -39 -81 -55 -83 -117 -18 -82 87 -272 168 -363 154 -23 -3
-23 -5 -23 -171 l0 -167 67 -51 c119 -90 217 -129 278 -112 52 15 103 64 116
112 19 72 32 101 56 130 13 16 23 34 23 40 0 7 18 25 40 40 22 16 40 35 40 42
0 8 27 42 60 75 33 33 60 65 60 69 0 5 7 11 15 15 8 3 15 13 15 21 0 13 5 14
23 8 73 -26 190 15 283 100 l53 48 20 -20 c12 -12 21 -25 21 -31 0 -5 7 -10
15 -10 8 0 26 -22 40 -50 14 -27 34 -54 45 -60 11 -6 20 -17 20 -24 0 -7 9
-21 19 -30 11 -10 27 -33 36 -52 9 -19 20 -34 26 -34 5 0 14 -11 19 -25 6 -15
17 -25 30 -25 13 0 20 -7 20 -20 0 -12 12 -26 30 -35 17 -9 30 -20 30 -24 0
-18 104 -123 164 -165 154 -110 247 -127 319 -59 44 43 59 78 56 141 -2 78 24
132 80 162 12 6 21 18 21 26 0 9 12 28 27 43 16 14 51 51 78 81 47 51 53 55
98 56 59 2 155 47 219 104 26 22 49 40 54 40 14 0 97 -95 106 -122 5 -15 20
-34 34 -43 13 -8 24 -22 24 -30 0 -8 6 -18 13 -22 7 -4 30 -36 52 -70 22 -34
46 -62 53 -63 7 0 17 -12 23 -27 47 -123 124 -212 248 -287 93 -57 163 -79
210 -66 51 13 85 41 106 87 20 41 23 130 6 162 -8 14 -6 23 9 36 11 10 20 24
20 31 0 7 18 28 40 45 22 18 40 38 40 45 0 7 27 41 60 74 33 33 60 65 60 70 0
20 22 20 46 1 66 -52 197 -10 322 105 39 35 73 64 76 64 3 0 6 -7 6 -15 0 -9
10 -20 23 -26 23 -11 57 -61 57 -85 0 -8 11 -19 24 -25 14 -7 27 -22 30 -35 4
-13 11 -24 16 -24 5 0 19 -18 30 -40 12 -23 27 -43 34 -46 7 -3 12 -23 12 -52
0 -102 124 -246 285 -332 106 -56 165 -60 222 -17 52 39 70 80 69 152 -1 65
25 138 52 148 9 4 16 15 16 26 0 11 18 34 40 52 22 18 40 38 40 45 0 7 8 19
18 26 9 7 25 25 35 40 9 15 28 35 42 44 23 15 26 15 56 -10 67 -57 202 -15
332 104 l65 60 66 -65 c36 -36 66 -72 66 -80 0 -8 13 -29 30 -47 54 -60 61
-68 82 -109 13 -26 22 -62 22 -98 2 -47 8 -68 34 -108 83 -130 282 -263 391
-263 43 0 92 29 125 73 32 43 30 158 -3 211 l-25 39 22 15 c12 8 22 22 22 31
0 10 19 36 43 59 67 65 87 88 87 99 0 5 16 22 35 37 19 16 35 33 35 38 0 5 9
17 21 27 20 16 22 16 54 -16 28 -28 40 -33 83 -33 70 0 171 53 258 135 38 36
70 65 72 65 1 0 2 -7 2 -15 0 -9 10 -20 23 -26 23 -11 57 -61 57 -85 0 -8 11
-19 24 -25 14 -7 27 -22 30 -35 4 -13 11 -24 16 -24 5 0 19 -18 30 -39 11 -22
28 -44 37 -50 15 -8 18 -21 15 -81 -2 -61 1 -78 24 -121 70 -128 285 -279 398
-279 32 0 54 8 83 29 75 55 92 155 42 253 l-22 42 22 14 c11 8 21 23 21 33 0
10 18 33 40 50 22 18 40 37 40 43 0 11 12 25 79 93 22 23 41 46 41 50 0 5 9
14 20 21 11 7 20 20 20 30 0 11 6 7 19 -14 28 -46 59 -64 112 -64 72 0 175 57
264 145 69 69 74 72 94 59 12 -9 21 -21 21 -28 0 -7 11 -18 23 -23 13 -6 32
-28 42 -50 10 -21 27 -48 39 -60 42 -45 56 -63 76 -102 11 -22 20 -49 20 -59
0 -10 14 -46 31 -80 52 -104 207 -231 336 -274 71 -24 117 -13 167 42 42 46
50 73 44 141 -3 27 -2 49 2 49 5 0 13 13 18 29 6 16 26 41 46 56 20 15 36 33
36 41 0 7 27 41 60 74 33 33 60 65 60 70 0 5 7 13 16 18 12 7 27 3 52 -14 58
-40 142 -28 232 33 23 15 58 38 77 49 19 12 44 37 55 55 20 32 21 33 29 12 4
-12 17 -24 27 -27 11 -4 26 -21 33 -38 7 -18 23 -44 36 -58 44 -49 70 -85 87
-117 9 -18 20 -33 24 -33 5 0 16 -24 26 -54 41 -132 223 -292 379 -334 87 -24
160 30 197 145 12 40 31 80 41 89 11 9 19 22 19 29 0 15 46 65 60 65 6 0 16
12 23 27 6 15 21 36 32 48 11 11 37 40 58 63 l37 42 32 -16 c74 -38 193 6 312
117 l74 69 21 -34 c12 -18 21 -38 21 -44 0 -5 11 -17 25 -26 14 -9 25 -23 25
-31 0 -8 6 -18 13 -22 7 -4 24 -26 37 -48 13 -22 30 -44 37 -48 7 -4 13 -14
13 -22 0 -7 8 -16 19 -20 12 -4 21 -19 25 -44 14 -91 138 -223 276 -295 123
-64 183 -65 246 -2 46 46 61 103 46 174 -10 47 -9 58 2 64 8 4 17 19 20 32 3
13 24 39 46 56 22 17 40 36 40 42 0 6 10 21 23 33 12 12 31 33 42 47 20 25 20
25 50 6 16 -10 40 -18 53 -18 l22 0 0 212 c0 165 -3 209 -12 200 -16 -16 -28
-15 -28 2 0 7 -31 45 -68 84 -38 39 -73 82 -79 94 -6 13 -27 43 -47 66 -20 24
-36 48 -36 52 0 5 -12 22 -26 39 -25 29 -27 71 -3 71 5 0 15 16 23 35 9 20 29
43 46 53 16 9 33 26 36 37 4 11 16 30 28 42 12 12 32 33 46 47 l25 26 -70 0
c-78 0 -63 11 -137 -107 -18 -28 -46 -62 -61 -74 l-29 -22 -27 21 c-83 61
-232 115 -306 111 -41 -3 -46 0 -68 32 -21 32 -27 34 -85 37 l-62 3 12 -26 c6
-14 15 -25 20 -25 5 0 13 -11 18 -25 5 -14 16 -25 24 -25 24 0 28 -18 12 -42
-22 -31 -20 -96 3 -141 l19 -38 -24 -28 c-13 -16 -24 -33 -24 -38 0 -5 -18
-27 -40 -48 -22 -21 -40 -44 -40 -51 0 -7 -7 -14 -15 -18 -8 -3 -25 -25 -36
-50 l-22 -44 -32 33 c-97 96 -279 49 -382 -99 -21 -30 -41 -55 -44 -56 -3 0
-12 15 -21 33 -8 17 -36 55 -62 83 -25 29 -46 57 -46 63 0 6 -9 16 -20 23 -11
7 -20 18 -20 25 0 7 -20 29 -45 50 -25 20 -54 55 -65 77 -19 39 -19 39 0 64
11 14 20 31 20 38 0 7 9 18 20 24 11 6 20 19 20 29 0 9 19 36 43 58 23 22 61
66 85 97 l43 56 -66 0 c-60 0 -66 -2 -77 -25 -6 -14 -15 -25 -19 -25 -4 0 -22
-26 -39 -57 -18 -32 -47 -71 -66 -87 l-34 -28 -43 39 c-94 86 -236 147 -332
141 -33 -2 -67 -8 -77 -12 -12 -5 -20 0 -30 21 -12 26 -18 28 -81 31 l-68 3
12 -23 c6 -13 18 -27 25 -31 8 -4 14 -15 14 -23 0 -8 13 -20 28 -25 28 -9 29
-12 24 -58 -4 -41 1 -59 28 -110 l33 -61 -47 -46 c-25 -25 -46 -50 -46 -55 0
-4 -20 -31 -45 -59 -25 -28 -45 -54 -45 -58 0 -4 -9 -13 -20 -19 -16 -11 -24
-9 -51 16 -99 91 -267 45 -380 -106 -26 -34 -49 -67 -51 -73 -6 -19 -46 9 -56
40 -5 14 -29 48 -54 75 -24 28 -51 61 -60 76 -9 14 -39 50 -67 81 -39 43 -51
63 -51 88 0 18 -5 50 -12 71 -10 35 -9 42 10 62 12 13 22 30 22 38 0 8 18 27
40 43 22 17 40 36 40 43 0 7 21 34 46 60 l46 48 -64 3 c-50 3 -65 0 -73 -13
-5 -9 -22 -30 -36 -46 -14 -16 -34 -47 -44 -68 -9 -21 -27 -43 -40 -49 -19 -9
-27 -7 -45 13 -27 29 -136 86 -209 110 -38 12 -72 16 -118 12 -63 -5 -93 6
-93 34 0 5 -29 9 -65 9 l-65 0 20 -40 c11 -22 25 -40 30 -40 6 0 10 -7 10 -15
0 -9 6 -18 14 -21 10 -4 13 -15 9 -37 -2 -18 2 -52 11 -77 l16 -45 -30 -25
c-17 -14 -30 -28 -30 -33 0 -4 -20 -27 -45 -51 -25 -25 -45 -49 -45 -55 0 -5
-17 -27 -37 -49 -21 -22 -43 -47 -48 -57 -10 -16 -13 -15 -49 6 -28 16 -54 22
-95 22 -97 0 -186 -54 -266 -164 -39 -52 -57 -55 -73 -11 -5 15 -32 53 -58 84
-27 31 -65 78 -84 104 -19 25 -51 60 -72 77 -31 25 -38 37 -38 66 0 20 -5 53
-11 75 -10 35 -8 41 14 65 14 14 28 36 32 49 3 12 10 22 16 22 5 0 15 15 23
34 8 18 30 46 50 61 53 40 47 55 -19 55 -51 0 -55 -2 -71 -32 -9 -18 -34 -48
-55 -66 -21 -18 -41 -42 -44 -53 -6 -19 -8 -18 -43 9 -59 46 -122 79 -204 106
-95 32 -132 33 -193 1 l-48 -24 -19 21 c-10 12 -18 25 -18 30 0 4 -29 8 -65 8
l-65 0 20 -40 c11 -22 25 -40 30 -40 6 0 10 -7 10 -16 0 -9 13 -21 30 -27 17
-7 30 -19 30 -29 0 -9 5 -20 11 -23 22 -14 30 -57 14 -75 -8 -9 -15 -21 -15
-26 0 -5 -16 -22 -36 -37 -19 -16 -48 -50 -64 -75 -16 -26 -38 -53 -49 -60
-12 -7 -21 -17 -21 -23 0 -6 -13 -23 -28 -39 -23 -23 -32 -26 -47 -17 -11 6
-44 10 -75 10 -98 0 -182 -52 -266 -165 l-42 -57 -21 20 c-11 11 -21 25 -21
32 0 11 -65 94 -129 165 -12 12 -21 27 -21 32 0 4 -19 24 -41 44 -40 33 -41
37 -41 93 0 63 13 102 49 146 13 16 23 34 23 40 0 7 18 25 40 40 22 16 40 34
40 42 0 7 15 28 33 47 l32 33 -57 3 c-68 4 -93 -14 -128 -87 -12 -27 -33 -54
-46 -60 -13 -6 -24 -15 -24 -21 0 -19 -22 -10 -63 26 -23 19 -78 53 -122 74
-133 65 -219 73 -291 29 l-31 -19 -22 30 c-20 28 -27 30 -82 30 l-61 0 23 -37
c12 -21 27 -43 33 -48 6 -6 16 -19 22 -30 6 -11 20 -21 30 -23 13 -2 24 -20
37 -59 l18 -55 -41 -41 c-22 -23 -40 -46 -40 -53 0 -6 -18 -30 -40 -52 -22
-22 -40 -45 -40 -51 0 -6 -7 -14 -15 -18 -9 -3 -27 -27 -41 -54 l-24 -49 -29
21 c-40 30 -102 41 -157 29 -82 -19 -138 -57 -205 -143 -38 -47 -39 -48 -48
-25 -5 13 -31 49 -57 80 -27 31 -65 78 -84 104 -19 25 -51 60 -72 77 -21 17
-38 37 -38 45 0 7 -9 27 -20 42 -24 34 -19 75 11 91 11 5 19 18 19 29 0 10 18
34 40 51 22 18 40 38 40 45 0 8 11 21 25 30 14 9 25 22 25 29 0 8 15 25 33 39
l32 26 -67 0 c-53 0 -71 -4 -83 -17 -8 -10 -23 -27 -33 -38 -9 -11 -31 -43
-47 -70 -16 -27 -38 -57 -49 -66 -20 -17 -23 -15 -73 32 -98 92 -283 164 -366
142 -34 -10 -43 -9 -50 3 -6 10 -27 14 -75 14 -55 -1 -64 -3 -51 -13 8 -7 18
-20 22 -30 4 -11 16 -21 27 -24 23 -6 24 -9 9 -50 -8 -24 -6 -42 10 -89 l20
-59 -35 -35 c-19 -20 -34 -40 -34 -46 0 -5 -18 -30 -40 -54 -21 -25 -46 -53
-54 -62 -8 -9 -25 -35 -38 -56 l-22 -40 -30 21 c-36 25 -120 34 -179 18 -56
-16 -127 -69 -178 -133 -49 -63 -55 -66 -62 -36 -4 13 -29 48 -57 78 -27 30
-50 59 -50 64 0 11 -19 32 -92 105 -41 40 -48 53 -54 101 -4 30 -15 71 -24 90
-11 21 -16 47 -13 63 5 25 54 77 73 77 5 0 12 10 16 22 4 12 20 36 37 53 l31
30 -58 3 c-69 4 -83 -6 -128 -85 -17 -29 -33 -53 -36 -53 -4 0 -27 14 -52 30
-25 17 -80 44 -122 60 -87 34 -179 40 -227 16 -26 -14 -29 -13 -54 10 -21 19
-37 24 -77 24 -44 0 -51 -3 -48 -17 2 -10 16 -24 31 -31 15 -7 27 -19 27 -26
0 -8 11 -21 25 -30 15 -10 22 -22 19 -31 -4 -8 1 -38 11 -66 l16 -52 -32 -31
c-17 -17 -42 -47 -54 -66 -13 -19 -34 -46 -49 -59 -14 -14 -26 -30 -26 -38 0
-7 -5 -13 -10 -13 -6 0 -20 -15 -31 -34 l-20 -34 -30 29 c-60 56 -162 63 -249
19 -51 -26 -125 -100 -166 -164 -16 -25 -31 -46 -34 -46 -5 1 -57 66 -98 123
-12 18 -44 56 -70 86 -46 53 -47 54 -44 115 3 41 -2 76 -13 103 -16 40 -16 42
3 61 11 11 30 25 41 32 12 6 21 17 21 25 0 8 27 43 60 77 l60 63 -61 3 c-56 3
-65 0 -90 -24 -16 -15 -29 -33 -29 -40 0 -6 -7 -14 -14 -17 -8 -3 -23 -21 -32
-39 -9 -18 -18 -35 -20 -36 -1 -2 -23 10 -48 28 -26 17 -81 48 -124 68 -63 30
-91 37 -152 40 -68 3 -79 1 -115 -23 l-39 -27 -31 36 c-29 35 -33 36 -95 36
-36 0 -60 -4 -55 -8 6 -4 28 -33 49 -66 22 -32 50 -63 63 -69 13 -5 23 -16 23
-23 0 -7 8 -18 18 -24 16 -10 16 -10 0 -20 -10 -6 -18 -16 -18 -23 0 -7 -20
-32 -45 -56 -25 -24 -45 -48 -45 -52 0 -5 -19 -30 -42 -56 -24 -27 -53 -61
-64 -76 l-22 -27 -43 25 c-52 29 -114 32 -183 9 -59 -20 -159 -111 -201 -183
-30 -51 -45 -63 -45 -36 0 8 -4 15 -9 15 -6 0 -27 26 -48 58 -20 31 -45 63
-55 70 -10 7 -27 30 -38 51 -10 21 -26 41 -35 44 -8 4 -15 12 -15 18 0 6 -19
28 -42 49 l-43 38 14 38 c8 22 24 52 37 67 13 16 24 33 24 38 0 11 49 59 60
59 5 0 13 14 19 30 5 17 14 30 19 30 5 0 23 18 41 40 l32 40 -64 0 c-62 0 -64
-1 -95 -39z m1163 -420 c112 -68 185 -81 243 -45 21 14 23 13 32 -10 5 -14 18
-30 30 -36 11 -6 20 -15 20 -20 0 -9 53 -86 83 -121 7 -8 16 -23 20 -32 3 -9
17 -19 31 -23 26 -6 33 -29 38 -126 2 -51 -15 -83 -94 -173 -21 -23 -38 -47
-38 -53 0 -5 -7 -12 -15 -15 -8 -4 -26 -29 -40 -57 -14 -27 -27 -50 -29 -50
-1 0 -22 19 -46 41 -65 62 -217 132 -296 137 -81 5 -105 -1 -150 -41 -27 -22
-39 -28 -42 -19 -2 8 -18 26 -34 40 -17 15 -37 40 -45 57 -9 16 -44 59 -79 94
-35 36 -64 69 -64 75 0 6 -9 22 -20 36 -25 32 -25 31 10 89 17 27 32 66 34 86
2 26 13 45 35 65 17 16 31 33 31 39 0 6 10 21 23 34 104 109 127 139 127 161
0 45 31 35 106 -34 39 -36 97 -80 129 -99z m5938 15 c126 -81 208 -95 275 -47
l40 30 16 -24 c9 -13 16 -31 16 -40 0 -8 11 -20 24 -26 14 -7 27 -22 30 -35 4
-13 11 -24 16 -24 5 0 19 -18 30 -40 12 -23 27 -43 35 -47 8 -3 15 -12 15 -19
0 -8 11 -20 25 -26 14 -6 25 -17 25 -24 0 -7 12 -21 27 -32 l27 -20 -37 -33
c-20 -18 -37 -38 -37 -44 0 -6 -11 -17 -24 -24 -13 -7 -36 -33 -51 -57 -16
-25 -43 -62 -62 -82 -18 -20 -39 -44 -47 -52 -7 -8 -26 -38 -42 -67 -44 -80
-55 -82 -155 -29 -96 51 -196 81 -243 72 -35 -7 -38 -4 -186 181 -28 34 -59
67 -69 73 -11 5 -29 30 -41 54 -20 42 -20 47 -6 75 18 33 21 108 7 130 -7 11
-3 21 15 38 13 12 24 29 24 37 0 8 9 18 20 21 11 3 20 13 20 20 0 8 16 27 35
42 19 15 35 33 35 40 0 7 9 17 20 23 11 6 20 20 20 31 0 12 10 29 22 39 23 18
23 18 74 -30 28 -27 76 -64 107 -84z m-4495 -3 c120 -77 201 -94 266 -54 20
13 36 27 36 32 0 21 19 6 35 -28 10 -21 27 -48 39 -60 38 -41 53 -60 72 -93
11 -19 27 -42 37 -52 9 -10 17 -22 17 -28 0 -5 11 -12 25 -16 15 -4 25 -13 25
-24 0 -10 5 -20 11 -22 7 -2 7 -12 0 -31 -6 -16 -11 -38 -11 -50 0 -13 -19
-41 -45 -66 -25 -24 -45 -49 -45 -55 0 -6 -17 -30 -37 -52 -66 -73 -84 -96
-105 -138 -11 -23 -25 -44 -31 -48 -6 -3 -29 8 -51 26 -136 109 -306 155 -398
107 l-36 -18 -44 49 c-24 27 -45 54 -47 61 -4 14 -30 43 -93 106 -27 25 -48
51 -48 56 0 6 -10 26 -23 45 l-24 34 39 63 c21 34 38 69 38 76 0 8 20 32 45
55 25 22 45 45 45 51 0 9 56 72 134 152 9 9 16 24 16 33 0 13 14 5 53 -30 28
-26 76 -62 105 -81z m2984 19 c76 -52 169 -92 214 -92 27 0 53 8 77 24 l35 24
16 -38 c8 -21 24 -41 36 -45 11 -3 20 -15 20 -26 0 -11 7 -22 15 -26 9 -3 25
-23 36 -45 11 -21 26 -41 34 -45 8 -3 15 -13 15 -23 0 -11 10 -20 25 -24 14
-4 25 -13 25 -21 0 -9 13 -23 28 -33 31 -18 31 -38 0 -60 -10 -7 -18 -18 -18
-24 0 -6 -19 -29 -43 -52 -24 -23 -53 -58 -66 -79 -12 -20 -31 -42 -42 -47
-10 -6 -19 -17 -19 -24 0 -7 -9 -21 -21 -32 -12 -10 -30 -37 -41 -59 -11 -22
-32 -49 -46 -61 l-26 -21 -44 30 c-75 51 -188 90 -262 91 -74 1 -107 17 -130
62 -17 34 -33 53 -95 114 -25 25 -54 63 -66 85 -11 22 -32 50 -47 62 -26 22
-26 22 -9 58 9 20 17 49 17 66 0 46 24 94 64 124 20 15 36 33 36 40 0 11 55
75 135 156 8 9 15 24 15 34 0 14 10 9 43 -22 23 -21 63 -53 89 -71z m2974 2
c76 -61 196 -119 250 -119 28 0 54 9 82 28 l42 27 10 -24 c5 -14 18 -31 30
-38 11 -7 20 -18 20 -24 0 -6 9 -19 19 -28 11 -10 27 -33 36 -53 9 -19 23 -37
31 -40 8 -3 14 -11 14 -19 0 -7 14 -21 30 -29 17 -9 28 -20 25 -26 -4 -5 7
-17 24 -27 17 -9 31 -22 31 -29 0 -17 -33 -77 -47 -86 -22 -14 -73 -72 -73
-82 0 -6 -17 -29 -37 -51 -67 -74 -85 -98 -105 -140 l-21 -41 -42 42 c-25 26
-82 62 -140 91 -93 47 -102 49 -179 49 -45 -1 -91 -4 -102 -9 -18 -6 -25 -1
-44 31 -29 47 -43 63 -98 117 -24 22 -55 62 -68 88 -13 26 -28 49 -33 53 -14
8 -2 106 15 126 8 8 14 20 14 24 0 9 15 27 83 94 20 20 37 42 37 48 0 6 6 13
14 16 8 3 17 19 21 36 4 17 12 31 20 31 7 0 16 17 20 37 l7 38 28 -32 c16 -17
54 -53 86 -79z m-4424 -53 c114 -59 180 -54 240 17 19 22 28 27 44 20 21 -10
54 -61 54 -84 0 -8 11 -20 25 -26 14 -6 25 -16 25 -23 0 -6 14 -27 30 -45 17
-18 30 -40 30 -47 0 -7 9 -18 20 -25 11 -7 20 -19 20 -26 0 -7 11 -17 25 -24
52 -23 38 -104 -29 -167 -20 -19 -36 -40 -36 -46 0 -6 -17 -30 -37 -52 -65
-71 -78 -88 -102 -134 -13 -24 -39 -57 -57 -72 l-33 -28 -53 39 c-128 96 -300
148 -368 112 -15 -8 -25 -1 -59 35 -23 25 -41 49 -41 54 0 5 -30 40 -67 78
-36 37 -76 86 -88 108 -20 37 -21 42 -7 64 9 13 19 51 23 85 7 55 11 64 48 96
23 20 41 43 41 52 0 9 9 19 19 23 11 3 23 15 26 26 4 10 22 31 41 45 19 15 34
30 34 35 0 5 8 17 18 27 16 17 19 16 76 -29 33 -27 95 -66 138 -88z m5936 35
c173 -120 258 -132 337 -45 20 23 38 39 39 37 1 -1 12 -24 24 -50 12 -27 28
-48 36 -48 8 0 19 -13 25 -30 5 -16 14 -30 18 -30 4 0 26 -29 48 -65 24 -39
49 -66 63 -70 12 -3 22 -12 22 -20 0 -8 7 -18 15 -22 12 -7 12 -14 0 -48 -8
-22 -14 -52 -15 -67 0 -16 -4 -28 -9 -28 -4 0 -21 -19 -37 -42 -16 -24 -50
-68 -77 -98 -26 -30 -61 -78 -77 -107 -44 -78 -53 -79 -111 -17 -110 116 -325
188 -420 140 -38 -19 -48 -13 -86 48 -14 21 -50 65 -82 97 -31 32 -64 72 -73
89 -17 29 -17 32 8 78 13 26 42 64 64 84 22 21 40 42 40 47 0 6 10 21 23 34
95 100 127 139 127 155 0 17 8 32 17 32 2 0 38 -24 81 -54z m1479 -18 c78 -59
176 -108 232 -115 29 -4 49 0 80 18 23 12 41 25 41 28 1 3 9 16 20 29 16 19
23 21 40 12 11 -6 20 -17 20 -26 0 -8 11 -19 24 -24 15 -5 30 -25 41 -54 10
-25 26 -48 36 -51 11 -4 19 -12 19 -19 0 -7 13 -27 30 -45 l29 -34 -19 -37
c-10 -20 -24 -59 -31 -86 -7 -27 -18 -53 -26 -57 -7 -4 -13 -14 -13 -21 0 -8
-17 -33 -37 -56 -21 -23 -49 -54 -62 -69 -12 -14 -34 -47 -47 -73 -13 -25 -29
-48 -36 -51 -7 -2 -30 11 -50 29 -108 97 -305 152 -389 110 l-33 -16 -48 52
c-26 29 -48 58 -48 65 0 7 -9 18 -20 25 -11 7 -20 17 -20 23 0 5 -23 31 -51
56 l-52 45 23 45 c13 24 27 51 32 59 5 8 14 26 20 40 6 14 28 39 49 55 22 16
39 34 39 41 0 7 27 40 60 75 33 34 60 66 60 71 0 17 21 6 87 -44z"/>
<path d="M488 3063 l-488 -3 0 -58 0 -58 6388 4 c3513 2 6393 5 6399 7 9 3 13
24 13 60 l0 55 -5912 -2 c-3252 -2 -6132 -4 -6400 -5z"/>
<path d="M898 2683 l-898 -3 0 -302 0 -301 1607 6 c883 4 3763 7 6400 7 l4793
0 0 300 0 300 -5502 -2 c-3027 -2 -5907 -4 -6400 -5z"/>
<path d="M2338 1843 l-2338 -3 0 -62 0 -61 4223 6 c2322 4 5202 7 6400 7
l2177 0 0 60 0 60 -4062 -2 c-2235 -2 -5115 -4 -6400 -5z"/>
<path d="M1420 1234 c0 -24 105 -171 160 -225 101 -98 193 -129 445 -147 144
-11 155 -17 175 -93 6 -21 12 -39 15 -39 2 0 11 22 20 49 9 27 23 55 31 62 9
7 73 15 162 21 249 14 342 48 455 167 53 55 137 174 137 193 0 11 -279 1 -370
-13 -86 -14 -168 -59 -243 -134 -68 -67 -146 -182 -173 -251 l-17 -45 -33 71
c-45 96 -109 184 -186 255 -86 80 -144 104 -271 116 -254 23 -307 25 -307 13z"/>
<path d="M2 1109 l3 -133 45 -28 c62 -38 143 -57 290 -69 193 -16 202 -18 222
-59 9 -19 21 -46 26 -60 8 -23 10 -22 26 27 9 28 24 57 32 64 9 7 70 15 154
20 262 15 327 36 438 143 63 60 107 115 151 189 l23 38 -158 -6 c-206 -9 -266
-18 -340 -55 -107 -52 -241 -210 -299 -351 l-19 -46 -22 54 c-73 180 -236 348
-369 381 -22 6 -77 13 -123 17 l-83 6 3 -132z"/>
<path d="M3040 1225 c0 -27 82 -145 145 -210 109 -112 206 -148 437 -161 146
-9 173 -19 189 -76 18 -64 25 -65 44 -9 9 29 27 58 38 66 14 9 77 17 177 24
161 11 243 27 310 61 61 31 154 124 216 215 l57 85 40 -66 c55 -91 155 -195
224 -232 70 -37 172 -59 313 -67 160 -10 175 -16 196 -73 20 -54 34 -74 32
-46 -2 32 22 94 41 104 10 5 90 14 177 19 96 6 186 18 227 30 116 32 207 108
304 253 l45 67 49 -74 c135 -207 236 -262 522 -285 73 -6 143 -14 156 -17 25
-6 63 -76 54 -100 -3 -7 -1 -13 4 -13 5 0 14 20 21 45 18 66 34 73 212 85 242
15 312 40 421 149 58 58 167 207 157 216 -1 1 -96 -3 -210 -10 -201 -11 -208
-12 -272 -44 -38 -18 -92 -58 -129 -94 -68 -66 -158 -194 -178 -254 l-11 -36
-42 79 c-80 154 -182 264 -292 316 -54 25 -79 30 -250 42 -178 14 -441 9 -590
-9 -64 -9 -154 -57 -222 -120 -63 -58 -153 -185 -186 -262 l-18 -42 -38 77
c-72 149 -175 261 -290 315 -58 28 -81 32 -225 44 -207 16 -213 16 -458 -1
-199 -13 -210 -15 -272 -45 -115 -57 -263 -228 -311 -360 l-18 -50 -22 55
c-38 95 -86 166 -169 250 -107 108 -158 133 -302 145 -282 24 -303 25 -303 14z"/>
<path d="M7860 1223 c0 -10 51 -95 83 -138 126 -167 224 -214 487 -235 74 -6
145 -13 158 -17 26 -6 52 -50 52 -88 0 -40 15 -29 28 20 18 66 34 73 212 85
178 11 253 28 329 73 62 37 149 127 202 210 21 32 41 57 46 55 4 -2 29 -35 55
-74 53 -79 150 -174 206 -203 60 -30 161 -51 303 -61 73 -6 144 -13 157 -17
25 -6 52 -54 52 -93 0 -11 5 -20 10 -20 6 0 10 9 10 21 0 31 29 87 48 93 10 3
87 10 172 16 184 11 270 33 347 86 72 50 186 184 228 269 3 7 7 7 10 0 20 -40
95 -144 136 -189 100 -110 198 -147 432 -166 73 -6 142 -13 155 -17 26 -6 52
-50 52 -88 0 -40 15 -29 28 20 18 66 34 73 212 85 171 11 252 28 320 67 66 39
145 117 198 198 26 38 50 72 54 75 4 3 29 -29 56 -70 27 -41 61 -86 76 -99
l26 -24 0 105 0 105 -67 6 c-38 3 -166 0 -285 -7 -213 -13 -218 -13 -284 -46
-108 -53 -235 -193 -298 -331 l-24 -50 -31 67 c-67 143 -180 268 -294 324 -58
28 -75 31 -254 45 -132 9 -209 11 -245 5 -29 -6 -128 -14 -220 -18 -161 -8
-169 -10 -235 -42 -112 -55 -246 -205 -300 -335 -10 -25 -21 -45 -24 -45 -3 0
-11 18 -18 40 -18 60 -124 212 -189 270 -70 62 -139 98 -218 110 -92 15 -354
31 -367 23 -7 -4 -100 -12 -209 -18 -192 -11 -198 -12 -263 -44 -109 -54 -236
-194 -299 -332 l-24 -50 -31 67 c-67 143 -180 268 -294 324 -58 28 -75 31
-257 45 -230 17 -210 17 -210 8z"/>
<path d="M1355 539 c-33 -4 -128 -12 -211 -17 -137 -8 -157 -11 -215 -39 -116
-54 -233 -183 -303 -333 l-33 -71 -18 47 c-27 71 -128 216 -190 272 -78 71
-162 111 -250 118 -39 2 -85 7 -103 9 l-32 4 0 -132 0 -132 44 -28 c62 -39
179 -66 339 -77 76 -6 147 -15 157 -20 10 -5 26 -33 35 -61 19 -56 24 -55 49
13 9 25 24 49 33 53 10 3 86 10 170 15 224 14 299 37 402 126 50 43 150 174
170 222 l13 32 33 -55 c71 -118 170 -222 250 -263 46 -23 158 -44 305 -57 174
-15 179 -18 201 -98 l12 -42 19 58 c11 31 28 62 39 67 10 6 85 15 166 20 82 4
181 16 221 25 84 19 170 72 233 143 50 57 129 172 129 189 0 12 -52 11 -297
-7 -140 -10 -214 -41 -304 -127 -68 -65 -160 -196 -186 -265 l-16 -45 -47 92
c-80 161 -195 279 -313 323 -37 14 -103 23 -222 31 -93 7 -181 13 -195 15 -14
2 -52 0 -85 -5z"/>
<path d="M3056 493 c64 -111 155 -212 235 -261 56 -34 178 -61 325 -72 169
-13 180 -17 197 -75 7 -25 17 -46 22 -46 5 0 17 23 28 51 12 32 27 54 40 59
12 5 79 11 149 14 154 8 267 30 332 65 64 35 170 142 221 224 l39 64 57 -86
c62 -94 153 -187 214 -218 59 -29 170 -51 315 -62 166 -13 176 -17 193 -77 8
-26 18 -48 23 -50 5 -2 17 19 27 47 10 27 27 54 37 60 11 6 89 15 172 20 167
10 246 27 319 67 65 35 152 122 210 211 l48 73 20 -38 c32 -64 127 -179 178
-216 100 -72 166 -91 378 -107 88 -7 147 -16 161 -25 21 -14 41 -65 35 -93 -1
-6 5 -12 14 -12 9 0 13 5 10 10 -9 15 13 75 34 94 14 13 53 19 174 26 238 14
316 41 425 144 49 46 170 212 161 221 -9 9 -379 -18 -425 -31 -129 -35 -280
-185 -358 -354 l-23 -50 -21 51 c-48 114 -161 252 -262 319 -61 40 -140 57
-325 69 -191 12 -522 -2 -600 -25 -149 -45 -319 -232 -380 -419 -5 -16 -10 -9
-25 34 -50 141 -195 313 -311 370 -62 30 -76 33 -260 47 -202 16 -477 12 -593
-7 -33 -6 -82 -22 -110 -36 -104 -53 -241 -213 -297 -348 l-23 -55 -22 54
c-58 144 -193 299 -306 355 -62 31 -75 33 -259 46 -107 8 -200 15 -207 15 -10
0 -5 -15 14 -47z"/>
<path d="M7860 513 c0 -5 22 -42 48 -83 138 -213 238 -268 533 -290 77 -6 150
-15 160 -21 22 -12 39 -48 39 -85 0 -15 6 -24 16 -24 8 0 12 5 9 10 -9 15 13
75 34 94 14 13 53 19 174 26 228 14 311 40 410 129 36 32 133 155 163 206 9
16 15 11 48 -44 49 -79 133 -170 195 -210 65 -42 175 -68 340 -81 77 -5 147
-13 156 -16 20 -8 45 -56 45 -89 0 -39 17 -30 23 13 4 21 13 46 20 56 16 22
82 35 188 35 105 1 240 26 305 57 29 14 82 53 117 87 62 60 157 190 157 214 0
12 -52 11 -297 -7 -93 -6 -123 -13 -175 -37 -109 -52 -226 -177 -294 -316 -16
-31 -31 -57 -34 -57 -3 0 -14 21 -24 47 -54 131 -191 283 -302 335 -56 26 -80
30 -250 43 -131 10 -207 11 -253 5 -36 -5 -134 -14 -218 -18 -142 -8 -156 -11
-215 -40 -115 -57 -214 -163 -289 -307 l-37 -72 -23 51 c-70 149 -191 285
-303 337 -59 28 -80 31 -253 44 -222 17 -213 17 -213 8z"/>
<path d="M11050 513 c0 -5 22 -42 48 -83 139 -214 238 -268 534 -290 91 -7
150 -16 164 -25 21 -14 41 -65 35 -92 -1 -7 5 -13 14 -13 9 0 13 5 10 11 -10
16 23 96 42 104 10 3 85 10 167 15 232 15 313 41 413 133 46 43 130 152 157
204 l16 32 -97 -5 c-293 -17 -322 -21 -387 -53 -112 -55 -212 -162 -287 -306
l-37 -73 -13 32 c-55 138 -191 296 -303 352 -69 34 -78 35 -261 49 -224 17
-215 17 -215 8z"/>
<path d="M12664 493 c12 -32 67 -117 102 -158 l34 -40 0 101 0 101 -46 7 c-80
11 -97 8 -90 -11z"/>
</g>
</svg>
